<?xml version="1.0" encoding="UTF-8" standalone="no"?>
<!-- Created with Inkscape (http://www.inkscape.org/) -->
<svg
   xmlns:dc="http://purl.org/dc/elements/1.1/"
   xmlns:cc="http://creativecommons.org/ns#"
   xmlns:rdf="http://www.w3.org/1999/02/22-rdf-syntax-ns#"
   xmlns:svg="http://www.w3.org/2000/svg"
   xmlns="http://www.w3.org/2000/svg"
   xmlns:sodipodi="http://sodipodi.sourceforge.net/DTD/sodipodi-0.dtd"
   xmlns:inkscape="http://www.inkscape.org/namespaces/inkscape"
   width="64px"
   height="64px"
   id="svg2473"
   sodipodi:version="0.32"
   inkscape:version="0.46"
   sodipodi:docname="gupta_allhabarat_au.svg"
   inkscape:output_extension="org.inkscape.output.svg.inkscape">
  <defs
     id="defs2475">
    <inkscape:perspective
       sodipodi:type="inkscape:persp3d"
       inkscape:vp_x="0 : 32 : 1"
       inkscape:vp_y="0 : 1000 : 0"
       inkscape:vp_z="64 : 32 : 1"
       inkscape:persp3d-origin="32 : 21.333333 : 1"
       id="perspective2481" />
    <inkscape:perspective
       id="perspective2490"
       inkscape:persp3d-origin="372.04724 : 350.78739 : 1"
       inkscape:vp_z="744.09448 : 526.18109 : 1"
       inkscape:vp_y="0 : 1000 : 0"
       inkscape:vp_x="0 : 526.18109 : 1"
       sodipodi:type="inkscape:persp3d" />
    <inkscape:perspective
       id="perspective2545"
       inkscape:persp3d-origin="372.04724 : 350.78739 : 1"
       inkscape:vp_z="744.09448 : 526.18109 : 1"
       inkscape:vp_y="0 : 1000 : 0"
       inkscape:vp_x="0 : 526.18109 : 1"
       sodipodi:type="inkscape:persp3d" />
    <inkscape:perspective
       id="perspective2580"
       inkscape:persp3d-origin="372.04724 : 350.78739 : 1"
       inkscape:vp_z="744.09448 : 526.18109 : 1"
       inkscape:vp_y="0 : 1000 : 0"
       inkscape:vp_x="0 : 526.18109 : 1"
       sodipodi:type="inkscape:persp3d" />
    <inkscape:perspective
       id="perspective2615"
       inkscape:persp3d-origin="372.04724 : 350.78739 : 1"
       inkscape:vp_z="744.09448 : 526.18109 : 1"
       inkscape:vp_y="0 : 1000 : 0"
       inkscape:vp_x="0 : 526.18109 : 1"
       sodipodi:type="inkscape:persp3d" />
  </defs>
  <sodipodi:namedview
     id="base"
     pagecolor="#ffffff"
     bordercolor="#666666"
     borderopacity="1.0"
     inkscape:pageopacity="0.0"
     inkscape:pageshadow="2"
     inkscape:zoom="5.5"
     inkscape:cx="43.930989"
     inkscape:cy="34.621564"
     inkscape:current-layer="layer1"
     showgrid="true"
     inkscape:document-units="px"
     inkscape:grid-bbox="true"
     inkscape:window-width="640"
     inkscape:window-height="688"
     inkscape:window-x="28"
     inkscape:window-y="28" />
  <metadata
     id="metadata2478">
    <rdf:RDF>
      <cc:Work
         rdf:about="">
        <dc:format>image/svg+xml</dc:format>
        <dc:type
           rdf:resource="http://purl.org/dc/dcmitype/StillImage" />
      </cc:Work>
    </rdf:RDF>
  </metadata>
  <g
     id="layer1"
     inkscape:label="Layer 1"
     inkscape:groupmode="layer">
    <path
       style="fill:#000000"
       d="M 34.563975,62.108423 C 33.93596,61.709177 33.806094,60.048694 33.804273,52.394836 C 33.803065,47.317224 33.614167,42.641586 33.384498,42.004529 C 33.133898,41.309412 33.220263,39.85774 33.600479,38.374217 C 34.434977,35.118178 33.828462,34.325249 30.503412,34.325249 C 29.171378,34.325249 27.721753,34.463307 27.282027,34.632047 C 25.904604,35.160613 23.790679,39.910738 23.485619,43.162816 L 23.201389,46.192839 L 20.795702,46.160671 C 19.472575,46.14298 18.1214,45.859885 17.793091,45.531576 C 16.944302,44.682786 18.163183,37.796635 19.698499,34.766833 C 20.864933,32.464986 20.868919,32.407516 19.921583,31.550188 C 19.391071,31.070081 18.706439,29.470259 18.400184,27.995029 C 17.792261,25.066678 17.335674,24.483311 15.239982,23.957325 C 13.498807,23.520318 13.179104,23.004319 13.26322,20.766837 C 13.37474,17.80037 14.225693,17.366336 18.673782,18.007148 C 23.695882,18.730655 24.463898,19.436626 24.463898,23.329505 C 24.463898,27.287975 24.991697,27.760198 29.41603,27.760198 C 34.124863,27.760198 34.417449,27.386238 33.636878,22.365412 C 32.837374,17.222799 30.973535,15.064691 24.463898,11.744167 C 22.303052,10.641934 21.956504,10.198356 21.946612,8.5220723 C 21.93492,6.5406123 23.392336,5.5400312 26.29016,5.5400312 C 28.615417,5.5400312 28.960199,5.7114752 31.114205,7.9387993 C 32.390098,9.2581218 33.536739,10.678402 33.662293,11.094979 C 33.787846,11.511554 34.04639,9.8252685 34.236833,7.3476766 C 34.608894,2.5072878 35.056697,1.5000006 36.836493,1.5000006 C 38.554429,1.5000006 39.259816,2.7480999 39.493309,6.2009247 C 39.789749,10.584603 40.341786,11.063568 42.598924,8.8954541 C 44.927996,6.6582422 48.024023,5.0350268 49.962086,5.0350268 C 51.178595,5.0350268 51.626337,5.3485635 52.172796,6.5831047 C 52.802016,8.0046128 52.763166,8.2321723 51.697633,9.3663829 C 51.059404,10.045743 49.295462,11.170079 47.777753,11.864909 C 41.55101,14.715606 40.845923,17.753745 40.338376,43.920322 C 39.984867,62.145516 39.900317,62.611724 36.951101,62.597731 C 36.054809,62.593479 34.980603,62.373287 34.563975,62.108423 z"
       id="path2621" />
  </g>
</svg>
