<?xml version="1.0" encoding="UTF-8" standalone="no"?>
<!-- Created with Inkscape (http://www.inkscape.org/) -->
<svg
   xmlns:dc="http://purl.org/dc/elements/1.1/"
   xmlns:cc="http://creativecommons.org/ns#"
   xmlns:rdf="http://www.w3.org/1999/02/22-rdf-syntax-ns#"
   xmlns:svg="http://www.w3.org/2000/svg"
   xmlns="http://www.w3.org/2000/svg"
   xmlns:sodipodi="http://sodipodi.sourceforge.net/DTD/sodipodi-0.dtd"
   xmlns:inkscape="http://www.inkscape.org/namespaces/inkscape"
   width="64px"
   height="64px"
   id="svg2473"
   sodipodi:version="0.32"
   inkscape:version="0.46"
   sodipodi:docname="gupta_allhabarat_o.svg"
   inkscape:output_extension="org.inkscape.output.svg.inkscape">
  <defs
     id="defs2475">
    <inkscape:perspective
       sodipodi:type="inkscape:persp3d"
       inkscape:vp_x="0 : 32 : 1"
       inkscape:vp_y="0 : 1000 : 0"
       inkscape:vp_z="64 : 32 : 1"
       inkscape:persp3d-origin="32 : 21.333333 : 1"
       id="perspective2481" />
    <inkscape:perspective
       id="perspective2490"
       inkscape:persp3d-origin="372.04724 : 350.78739 : 1"
       inkscape:vp_z="744.09448 : 526.18109 : 1"
       inkscape:vp_y="0 : 1000 : 0"
       inkscape:vp_x="0 : 526.18109 : 1"
       sodipodi:type="inkscape:persp3d" />
    <inkscape:perspective
       id="perspective2545"
       inkscape:persp3d-origin="372.04724 : 350.78739 : 1"
       inkscape:vp_z="744.09448 : 526.18109 : 1"
       inkscape:vp_y="0 : 1000 : 0"
       inkscape:vp_x="0 : 526.18109 : 1"
       sodipodi:type="inkscape:persp3d" />
    <inkscape:perspective
       id="perspective2580"
       inkscape:persp3d-origin="372.04724 : 350.78739 : 1"
       inkscape:vp_z="744.09448 : 526.18109 : 1"
       inkscape:vp_y="0 : 1000 : 0"
       inkscape:vp_x="0 : 526.18109 : 1"
       sodipodi:type="inkscape:persp3d" />
  </defs>
  <sodipodi:namedview
     id="base"
     pagecolor="#ffffff"
     bordercolor="#666666"
     borderopacity="1.0"
     inkscape:pageopacity="0.0"
     inkscape:pageshadow="2"
     inkscape:zoom="5.5"
     inkscape:cx="43.930989"
     inkscape:cy="35.157025"
     inkscape:current-layer="layer1"
     showgrid="true"
     inkscape:document-units="px"
     inkscape:grid-bbox="true"
     inkscape:window-width="640"
     inkscape:window-height="688"
     inkscape:window-x="28"
     inkscape:window-y="28" />
  <metadata
     id="metadata2478">
    <rdf:RDF>
      <cc:Work
         rdf:about="">
        <dc:format>image/svg+xml</dc:format>
        <dc:type
           rdf:resource="http://purl.org/dc/dcmitype/StillImage" />
      </cc:Work>
    </rdf:RDF>
  </metadata>
  <g
     id="layer1"
     inkscape:label="Layer 1"
     inkscape:groupmode="layer">
    <path
       style="fill:#000000"
       d="M 35.010277,62.206074 C 34.497484,62.072071 34.027851,61.920072 33.966644,61.868303 C 33.90544,61.816528 33.725629,55.301003 33.567067,47.389353 L 33.27877,33.004533 L 30.082144,33.116687 C 27.554508,33.205368 26.693173,33.465161 25.966439,34.358056 C 24.709765,35.902054 23.82943,39.218664 24.498646,39.887877 C 25.454532,40.843764 25.038191,42.644802 23.526545,44.09305 C 21.578046,45.959832 19.570454,45.96354 18.35113,44.102613 C 17.48757,42.784661 17.478449,42.423964 18.226507,39.174481 C 18.670431,37.246132 19.336653,34.936378 19.707,34.0417 C 20.314987,32.572932 20.221895,32.081571 18.74809,28.980374 C 17.85034,27.091324 16.959344,24.697633 16.768097,23.661058 C 16.500621,22.21133 16.029552,21.606406 14.726921,21.039883 C 12.686783,20.152614 12.253163,19.581898 12.24247,17.769937 C 12.226884,15.12863 13.615485,14.568273 19.756505,14.737714 L 25.287205,14.890315 L 25.454108,17.217565 C 25.582836,19.012518 25.360871,19.82172 24.483654,20.755474 C 22.910725,22.429781 23.191485,25.271133 25.020818,26.191699 C 26.697688,27.035541 31.530729,27.080671 32.351253,26.260149 C 33.456198,25.155202 32.528219,20.946312 30.768301,19.0806 C 28.757813,16.949258 28.869687,14.968522 31.014494,14.721734 C 34.037057,14.37395 32.110394,11.458783 27.357492,9.1884525 C 24.409352,7.780207 23.606907,7.6126223 21.421244,7.9487148 C 20.031234,8.1624581 17.934963,8.3732775 16.762867,8.4172013 C 14.687671,8.4949687 14.6276,8.4472611 14.472326,6.5980854 C 14.350621,5.1487104 14.628717,4.3832615 15.64691,3.3650679 C 17.817181,1.1947972 20.338697,0.68804725 24.157452,1.6547021 C 25.950912,2.1086868 27.796787,2.8150141 28.259396,3.2243185 C 28.722005,3.633623 29.367493,3.9685089 29.693813,3.9685089 C 30.020134,3.9685089 31.428273,5.2902986 32.823012,6.9058187 L 35.358901,9.8431285 L 37.781848,7.4703962 C 40.753978,4.5598638 46.31691,1.8384227 49.295421,1.8378447 C 50.994535,1.8375149 51.78205,2.1735526 52.95753,3.4004874 C 54.200766,4.6981452 54.398009,5.2635448 54.119184,6.730307 C 53.653973,9.1774922 51.84181,9.9711275 48.403108,9.2336578 C 45.15863,8.5378415 42.506191,9.2896081 40.071602,11.595012 C 37.956215,13.598152 37.891364,14.396425 39.805217,14.874068 C 41.424311,15.278146 43.135036,16.614089 43.135036,17.474398 C 43.135036,17.77923 42.475732,18.716991 41.669916,19.558313 L 40.204796,21.08799 L 40.174173,40.099153 C 40.15733,50.555292 39.95847,59.889495 39.732263,60.841824 C 39.370561,62.364579 39.117329,62.565876 37.631801,62.511528 C 36.702755,62.477537 35.523069,62.340081 35.010277,62.206074 z"
       id="path2586" />
  </g>
</svg>
