<?xml version="1.0" encoding="UTF-8" standalone="no"?>
<!-- Created with Inkscape (http://www.inkscape.org/) -->
<svg
   xmlns:dc="http://purl.org/dc/elements/1.1/"
   xmlns:cc="http://creativecommons.org/ns#"
   xmlns:rdf="http://www.w3.org/1999/02/22-rdf-syntax-ns#"
   xmlns:svg="http://www.w3.org/2000/svg"
   xmlns="http://www.w3.org/2000/svg"
   xmlns:sodipodi="http://sodipodi.sourceforge.net/DTD/sodipodi-0.dtd"
   xmlns:inkscape="http://www.inkscape.org/namespaces/inkscape"
   width="64px"
   height="64px"
   id="svg2383"
   sodipodi:version="0.32"
   inkscape:version="0.46"
   sodipodi:docname="gupta_u.svg"
   inkscape:output_extension="org.inkscape.output.svg.inkscape">
  <defs
     id="defs2385">
    <inkscape:perspective
       sodipodi:type="inkscape:persp3d"
       inkscape:vp_x="0 : 32 : 1"
       inkscape:vp_y="0 : 1000 : 0"
       inkscape:vp_z="64 : 32 : 1"
       inkscape:persp3d-origin="32 : 21.333333 : 1"
       id="perspective2391" />
    <inkscape:perspective
       id="perspective2400"
       inkscape:persp3d-origin="372.04724 : 350.78739 : 1"
       inkscape:vp_z="744.09448 : 526.18109 : 1"
       inkscape:vp_y="0 : 1000 : 0"
       inkscape:vp_x="0 : 526.18109 : 1"
       sodipodi:type="inkscape:persp3d" />
  </defs>
  <sodipodi:namedview
     id="base"
     pagecolor="#ffffff"
     bordercolor="#666666"
     borderopacity="1.0"
     inkscape:pageopacity="0.0"
     inkscape:pageshadow="2"
     inkscape:zoom="5.5"
     inkscape:cx="32"
     inkscape:cy="32"
     inkscape:current-layer="layer1"
     showgrid="true"
     inkscape:document-units="px"
     inkscape:grid-bbox="true"
     inkscape:window-width="640"
     inkscape:window-height="688"
     inkscape:window-x="28"
     inkscape:window-y="28" />
  <metadata
     id="metadata2388">
    <rdf:RDF>
      <cc:Work
         rdf:about="">
        <dc:format>image/svg+xml</dc:format>
        <dc:type
           rdf:resource="http://purl.org/dc/dcmitype/StillImage" />
      </cc:Work>
    </rdf:RDF>
  </metadata>
  <g
     id="layer1"
     inkscape:label="Layer 1"
     inkscape:groupmode="layer">
    <path
       style="fill:#000000"
       d="M 25.115849,60.488451 C 17.50184,58.63133 12.078139,55.661216 7.8847616,51.052406 C 5.5795215,48.518787 3.1843498,45.566715 2.5621576,44.492245 C 1.4067042,42.496875 0.94636483,36.282078 1.8845288,35.343915 C 3.1705193,34.057924 6.2631327,36.10007 7.9057826,39.319929 C 11.211782,45.800225 18.804523,49.743172 28.436716,49.981743 C 31.800018,50.065045 35.039691,50.434725 35.635986,50.803257 C 37.36603,51.872483 43.815599,49.505063 46.935296,46.655661 C 49.9051,43.943163 50.923208,39.278724 48.545461,39.278724 C 47.856444,39.278724 46.581634,38.493002 45.712551,37.532677 C 44.793634,36.517285 42.360765,35.58694 39.898732,35.309433 C 37.570216,35.046976 35.177598,34.340715 34.581804,33.739967 C 33.878779,33.031097 33.583262,29.671949 33.739905,24.170084 C 34.032572,13.890473 32.966398,11.596617 27.693221,11.160745 C 24.464197,10.893838 24.16065,10.622416 23.886076,7.7565069 C 23.69576,5.7700606 24.169656,3.9992598 25.194696,2.8666035 C 26.614114,1.2981646 28.17732,1.0909072 38.587634,1.0909072 C 52.203644,1.0909072 53.840475,1.7145022 53.36432,6.7204808 C 53.107228,9.4233695 52.584306,10.078953 50.101896,10.810546 C 46.695407,11.814476 45.141168,14.568469 45.141168,19.600578 C 45.141168,23.017413 48.012076,27.170392 50.374095,27.170392 C 52.472184,27.170392 57.190823,33.422991 58.106061,37.415903 C 59.939466,45.414512 59.471364,47.998233 55.435354,52.157066 C 47.703626,60.124083 36.379591,63.235776 25.115849,60.488451 z"
       id="path2406" />
  </g>
</svg>
